<svg width="430" height="724" viewBox="0 0 430 724" fill="none" xmlns="http://www.w3.org/2000/svg">
<g clip-path="url(#clip0_651_32743)">
<path d="M73.4378 200C67.4869 200 61.7797 202.361 57.5719 206.564C53.364 210.767 51 216.468 51 222.412C51 228.356 53.364 234.057 57.5719 238.26C61.7797 242.463 67.4869 244.824 73.4378 244.824H240.653C246.604 244.824 252.311 242.463 256.519 238.26C260.727 234.057 263.091 228.356 263.091 222.412C263.091 216.468 260.727 210.767 256.519 206.564C252.311 202.361 246.604 200 240.653 200H73.4378Z" fill="#E5E5E5"/>
<path d="M73.4379 204.535C68.6913 204.535 64.1392 206.419 60.7829 209.771C57.4266 213.124 55.541 217.671 55.541 222.412C55.541 227.153 57.4266 231.7 60.7829 235.052C64.1392 238.405 68.6913 240.288 73.4379 240.288H240.652C245.399 240.288 249.951 238.405 253.307 235.052C256.664 231.7 258.549 227.153 258.549 222.412C258.549 217.671 256.664 213.124 253.307 209.771C249.951 206.419 245.399 204.535 240.652 204.535H73.4379Z" fill="white"/>
<path d="M110.373 233.101H77.1036C76.9967 233.104 76.8902 233.085 76.7906 233.046C76.6909 233.007 76.6001 232.949 76.5234 232.874C76.4468 232.799 76.3859 232.71 76.3443 232.612C76.3027 232.513 76.2812 232.407 76.2812 232.3C76.2812 232.194 76.3027 232.088 76.3443 231.989C76.3859 231.891 76.4468 231.802 76.5234 231.727C76.6001 231.652 76.6909 231.594 76.7906 231.555C76.8902 231.516 76.9967 231.497 77.1036 231.5H110.373C110.582 231.505 110.781 231.592 110.926 231.742C111.072 231.891 111.154 232.092 111.154 232.3C111.154 232.509 111.072 232.71 110.926 232.859C110.781 233.009 110.582 233.095 110.373 233.101Z" fill="#6467F2"/>
<path d="M152.578 233.368H119.308C119.096 233.368 118.892 233.283 118.742 233.133C118.591 232.983 118.507 232.779 118.507 232.567C118.507 232.355 118.591 232.151 118.742 232.001C118.892 231.851 119.096 231.767 119.308 231.767H152.578C152.79 231.767 152.994 231.851 153.144 232.001C153.295 232.151 153.379 232.355 153.379 232.567C153.379 232.779 153.295 232.983 153.144 233.133C152.994 233.283 152.79 233.368 152.578 233.368Z" fill="#6467F2"/>
<path d="M194.783 233.635H161.513C161.304 233.63 161.106 233.543 160.96 233.393C160.814 233.244 160.732 233.043 160.732 232.834C160.732 232.626 160.814 232.425 160.96 232.276C161.106 232.126 161.304 232.039 161.513 232.034H194.783C194.995 232.034 195.199 232.118 195.349 232.268C195.5 232.419 195.584 232.622 195.584 232.834C195.584 233.047 195.5 233.25 195.349 233.4C195.199 233.551 194.995 233.635 194.783 233.635Z" fill="#6467F2"/>
<path d="M236.987 233.902H203.717C203.505 233.902 203.301 233.817 203.151 233.667C203 233.517 202.916 233.313 202.916 233.101C202.916 232.889 203 232.685 203.151 232.535C203.301 232.385 203.505 232.301 203.717 232.301H236.987C237.196 232.306 237.394 232.393 237.54 232.542C237.686 232.692 237.768 232.892 237.768 233.101C237.768 233.31 237.686 233.51 237.54 233.66C237.394 233.81 237.196 233.896 236.987 233.902Z" fill="#6467F2"/>
<path d="M93.6661 225.734C97.0812 225.734 99.8497 222.969 99.8497 219.558C99.8497 216.147 97.0812 213.381 93.6661 213.381C90.2509 213.381 87.4824 216.147 87.4824 219.558C87.4824 222.969 90.2509 225.734 93.6661 225.734Z" fill="#6467F2"/>
<path d="M136.125 225.734C139.54 225.734 142.309 222.969 142.309 219.558C142.309 216.147 139.54 213.381 136.125 213.381C132.71 213.381 129.941 216.147 129.941 219.558C129.941 222.969 132.71 225.734 136.125 225.734Z" fill="#6467F2"/>
<path d="M178.585 225.734C182 225.734 184.769 222.969 184.769 219.558C184.769 216.147 182 213.381 178.585 213.381C175.17 213.381 172.401 216.147 172.401 219.558C172.401 222.969 175.17 225.734 178.585 225.734Z" fill="#6467F2"/>
<path d="M221.044 225.734C224.459 225.734 227.228 222.969 227.228 219.558C227.228 216.147 224.459 213.381 221.044 213.381C217.629 213.381 214.86 216.147 214.86 219.558C214.86 222.969 217.629 225.734 221.044 225.734Z" fill="#6467F2"/>
<path d="M369.905 692.994C369.942 693.008 369.977 693.025 370.009 693.047C368.743 690.302 367.555 687.527 366.476 684.704C366.348 684.374 366.23 684.031 366.102 683.7C366.112 683.786 366.112 683.871 366.124 683.972C366.156 684.507 366.199 685.04 366.241 685.585C366.306 686.428 366.359 687.283 366.369 688.138C366.379 688.409 366.379 688.658 366.379 688.928C366.375 689.968 366.268 691.006 366.059 692.026H366.101C366.372 692.047 366.614 692.058 366.87 692.101C367.875 692.235 368.856 692.515 369.781 692.932C369.822 692.95 369.861 692.971 369.898 692.997L369.905 692.994Z" fill="url(#paint0_linear_651_32743)"/>
<path d="M349.687 273.427C349.573 277.887 348.059 282.205 347.825 286.661C360.954 287.314 373.905 280.94 386.908 282.895C383.271 280.542 381.332 276.302 380.189 272.125C378.732 266.739 378.298 261.128 378.907 255.582C378.942 255.274 378.996 254.968 379.07 254.667C379.552 252.483 380.8 249.397 380.466 247.682C380.025 245.411 377.886 245.86 375.958 245.991C370.082 246.438 364.234 247.194 358.436 248.253C356.926 248.514 342.213 252.191 341.992 251.807C344.571 255.947 346.706 260.347 348.361 264.935C349.277 267.67 349.726 270.54 349.686 273.424L349.687 273.427Z" fill="#9F616A"/>
<path d="M219.845 259.645C220.973 261.185 222.324 262.548 223.854 263.689C224.849 264.503 225.87 265.34 226.94 266.09C228.845 267.561 231.114 268.484 233.504 268.761C236.632 268.97 243.273 267.132 245.212 264.455C246.032 263.109 246.422 261.544 246.331 259.97C246.298 257.836 245.935 255.719 245.253 253.696C244.034 250.404 242.327 247.314 240.188 244.53C237.927 241.385 235.407 238.286 232.047 236.385C230.926 235.785 229.77 235.252 228.585 234.791C226.543 233.96 224.514 233.117 222.468 232.283C222.121 232.113 221.744 232.013 221.359 231.989C219.717 232.005 219.415 234.513 220.346 235.869C222.208 238.598 226.397 239.357 227.573 242.454C226.582 242.484 225.626 242.828 224.843 243.436C224.059 244.043 223.488 244.884 223.212 245.836C223.166 246.342 222.96 246.82 222.624 247.201C222.081 247.633 221.244 247.389 220.634 247.716C219.549 248.296 220.022 249.913 219.91 251.138C219.644 252.2 219.269 253.231 218.792 254.215C218.561 255.142 218.536 256.107 218.718 257.044C218.899 257.981 219.284 258.867 219.844 259.64L219.845 259.645Z" fill="#9F616A"/>
<path d="M400.83 706.866C399.82 705.855 398.168 706.028 396.76 706.25C389.184 707.449 381.529 708.068 373.859 708.104C372.898 703.412 375.686 698.847 376.584 694.149C376.713 692.934 377.017 691.745 377.489 690.619C378.569 688.545 381.005 687.596 383.292 687.114C387.418 686.243 393.875 684.707 396.175 688.882C398.94 693.895 399.825 701.295 400.83 706.866Z" fill="#9F616A"/>
<path d="M316.925 689.148C320.036 691.273 323.897 691.935 327.638 692.416C331.378 692.898 335.231 693.258 338.619 694.925C341.543 696.373 344.007 698.74 347.104 699.778C349.982 700.568 353.013 700.616 355.914 699.917C359.392 699.264 363.1 697.998 364.978 694.99C366.651 692.319 366.472 688.927 366.244 685.783C365.974 682.229 365.71 678.67 365.452 675.104C365.464 674.2 365.236 673.309 364.79 672.523C362.276 668.855 356.163 674.061 352.885 674.05C347.701 674.042 342.132 671.232 338.392 667.792C338.065 667.45 337.684 667.163 337.265 666.943C335.787 666.281 334.309 667.506 332.995 668.576C332.848 668.699 332.701 668.821 332.554 668.938C329.525 671.34 325.459 671.834 321.719 672.802C317.979 673.771 313.963 675.736 312.803 679.428C312.727 679.661 312.667 679.898 312.622 680.138C311.941 683.537 314.007 687.156 316.925 689.148Z" fill="#090814"/>
<path d="M399.408 457.6C401.831 469.498 399.534 481.874 393.002 492.108C391.22 494.869 389.134 497.461 387.795 500.462C386.917 502.603 386.237 504.819 385.762 507.083L379.991 530.983C378.432 537.431 376.864 544.015 377.332 550.633C377.659 555.248 378.821 560.434 375.981 564.081C375.295 564.776 374.716 565.569 374.262 566.434C373.979 567.449 373.969 568.52 374.234 569.54C377.154 586.892 379.319 605.031 374.045 621.817C369.264 637.032 368.992 653.89 364.928 669.311C364.425 671.22 363.849 673.234 362.403 674.578C361.317 675.493 360.013 676.112 358.619 676.377C352.629 677.803 346.305 676.133 340.719 673.544C336.794 671.724 332.568 668.532 332.903 664.216C333.063 662.163 334.26 660.368 335.074 658.472C336.67 654.761 336.797 650.617 337.229 646.601C338.314 636.513 341.417 626.781 343.766 616.917C346.115 607.052 347.709 596.741 345.723 586.796C341.661 566.224 335.159 546.212 326.355 527.182C325.972 526.17 325.365 525.258 324.58 524.513C323.697 524.01 322.857 523.435 322.069 522.793C321.459 521.85 321.067 520.782 320.92 519.668C320.047 516.52 317.452 514.198 315.713 511.433C311.322 504.452 312.713 495.505 312.876 487.257C313.034 479.237 311.881 471.143 313.194 463.232C314.507 455.322 319.039 447.231 326.663 444.751C330.44 443.523 334.523 443.802 338.475 444.193C359.411 446.268 379.763 450.074 399.408 457.6Z" fill="#090814"/>
<path d="M314.129 507.9C314.19 511.017 314.543 514.121 315.181 517.172C318.872 537.882 322.805 558.548 326.98 579.17C327.347 580.959 327.704 582.749 328.188 584.504C329.744 590.243 332.465 595.599 336.181 600.239C353.582 621.936 355.086 653.447 364.524 679.613C365.157 681.382 365.797 683.159 366.475 684.907C368.18 689.342 370.123 693.681 372.295 697.907C372.549 698.523 372.963 699.059 373.495 699.459C374.081 699.754 374.736 699.881 375.389 699.827C383.882 699.876 392.272 697.967 399.909 694.248C400.999 693.846 401.919 693.081 402.514 692.082C402.808 691.285 402.903 690.429 402.792 689.586C402.531 684.399 402.212 679.023 399.738 674.465C398.097 671.736 396.06 669.266 393.696 667.134C392.961 650.852 391.352 634.538 387.771 618.641C385.934 610.512 383.665 602.294 378.945 595.424C375.467 590.351 370.478 585.343 371.09 579.224C371.362 576.538 372.486 573.193 370.298 571.611C369.343 570.916 367.93 570.827 367.283 569.842C367.023 569.377 366.877 568.856 366.858 568.323C366.408 564.123 366.67 559.878 367.633 555.766C368.429 553.08 369.055 550.346 369.505 547.58C369.782 544.786 369.308 541.764 367.447 539.676C367.333 534.088 367.488 528.287 367.373 522.708C367.153 519.528 367.417 516.333 368.156 513.232C368.58 511.769 369.226 510.373 369.552 508.877C370.719 503.509 367.804 497.08 371.27 492.824C372.717 491.056 374.944 490.177 376.838 488.902C380.619 486.378 383.101 482.246 384.482 477.906C385.706 473.514 386.432 468.998 386.646 464.443C386.759 463.476 386.77 462.5 386.679 461.531C386.618 461.029 386.486 460.539 386.287 460.075C385.209 457.649 382.307 456.709 379.73 456.093C363.332 452.158 346.524 450.192 329.662 450.236C323.421 445.988 319.913 447.506 317.27 452.004C315.809 454.752 314.627 457.639 313.742 460.622C312.534 464.274 312.461 484.714 311.285 488.382C309.769 493.154 314.186 502.892 314.129 507.9Z" fill="#090814"/>
<path d="M355.59 264.991C372.335 264.991 385.91 251.409 385.91 234.655C385.91 217.9 372.335 204.318 355.59 204.318C338.844 204.318 325.27 217.9 325.27 234.655C325.27 251.409 338.844 264.991 355.59 264.991Z" fill="#9F616A"/>
<path d="M337.943 284.317C339.265 285.846 341.038 287.533 342.999 287.041C343.707 286.799 344.372 286.443 344.966 285.987C348.462 283.734 352.751 283.204 356.864 282.584C365.152 281.335 373.34 279.492 381.365 277.072C383.694 276.224 386.136 275.726 388.612 275.597C393.751 275.624 398.305 279.041 401.525 283.049C404.746 287.056 407.028 291.744 410.187 295.799C412.438 298.688 415.12 301.235 417.222 304.233C422.531 311.804 401.032 401.845 401.318 403.363C403.332 417.69 404.394 457.573 403.501 464.921C394.015 461.255 384.076 458.893 373.955 457.898C367.443 457.258 360.802 457.174 354.517 455.348C350.591 454.204 346.868 452.395 342.882 451.485C339.65 450.85 336.366 450.514 333.072 450.482C325.806 450.189 318.489 449.898 311.298 450.97C310.715 451.06 310.006 451.103 309.658 450.628C309.503 450.37 309.427 450.072 309.44 449.771C309.33 447.074 309.974 444.4 311.3 442.049C312.218 440.43 313.492 438.846 313.456 436.986C313.389 436.12 315.265 322.748 317.954 317.914C321.084 312.288 324.259 306.546 325.523 300.234C326.354 296.055 326.331 291.751 326.929 287.531C326.992 286.46 327.365 285.43 328.001 284.566C329.028 283.401 330.766 283.234 332.317 283.283C334.233 283.345 336.129 283.696 337.941 284.323L337.943 284.317Z" fill="#E6E6E6"/>
<path d="M327.817 331.699C325.972 334.001 324.048 336.369 321.43 337.731C318.415 339.291 314.87 339.33 311.48 339.258C297.509 338.959 283.592 337.427 269.89 334.683C268.331 334.411 251.595 324.015 248.165 319.641C244.084 314.36 233.821 280.465 233.459 278.534C232.829 275.204 231.141 272.167 228.647 269.875C228.118 269.497 227.719 268.966 227.504 268.353C227.436 267.843 227.531 267.324 227.775 266.87C229.171 263.759 232.364 261.752 235.675 260.942C239.028 260.295 242.459 260.159 245.853 260.538C246.984 260.752 248.098 261.048 249.186 261.424C251.876 268.715 270.623 302.477 271.599 302.427C274.279 302.592 280.064 303.571 282.493 302.427C285.251 301.132 294.296 301.081 294.778 300.817C295.871 300.183 305.704 295.917 306.989 296.054C306.181 295.33 324.802 290.646 326.086 288.41C326.538 287.617 326.628 286.537 327.403 286.057C327.928 285.799 328.525 285.73 329.095 285.861C330.873 286.097 332.601 286.622 334.211 287.414C336.834 297.69 335.458 308.361 333.458 318.776C332.727 323.5 330.786 327.954 327.822 331.703L327.817 331.699Z" fill="#E6E6E6"/>
<path d="M343.063 276.699C346.319 274.673 350.144 273.814 353.917 273.125C356.18 272.61 358.508 272.443 360.821 272.629C362.955 272.895 365.003 273.72 367.152 273.839C370.167 274.008 373.056 272.784 375.969 271.987C378.881 271.19 382.244 270.885 384.7 272.648C385.222 273.162 385.882 273.513 386.599 273.658C387.344 273.567 388.036 273.228 388.563 272.695C390.626 271.217 393.129 270.485 395.663 270.619C398.196 270.752 400.609 271.743 402.505 273.43C408.064 278.645 407.436 288.835 413.951 292.791C415.747 293.877 418.042 294.455 419.091 296.279C419.345 296.859 419.641 297.42 419.978 297.957C420.414 298.437 420.948 298.818 421.544 299.074C423.435 299.918 425.234 300.953 426.915 302.162C427.753 302.773 428.459 303.547 428.99 304.438C429.521 305.329 429.867 306.318 430.005 307.346C430.029 308.853 429.705 310.345 429.056 311.706C425.868 319.529 420.336 326.173 413.221 330.725C406.107 335.276 397.758 337.511 389.322 337.123C387.825 337.2 386.349 336.739 385.161 335.824C384.536 335.116 384.043 334.302 383.706 333.419C380.643 326.994 374.891 322.251 371.237 316.142C369.061 312.502 367.663 308.429 365.397 304.843C361.96 299.407 356.737 295.391 351.623 291.494C348.739 289.297 345.528 286.991 341.906 287.145C338.677 287.282 336.328 287.457 337.512 283.493C338.497 280.639 340.467 278.23 343.069 276.699H343.063Z" fill="#E6E6E6"/>
<path opacity="0.05" d="M343.063 276.699C346.319 274.673 350.144 273.814 353.917 273.125C356.18 272.61 358.508 272.443 360.821 272.629C362.955 272.895 365.003 273.72 367.152 273.839C370.167 274.008 373.056 272.784 375.969 271.987C378.881 271.19 382.244 270.885 384.7 272.648C385.222 273.162 385.882 273.513 386.599 273.658C387.344 273.567 388.036 273.228 388.563 272.695C390.626 271.217 393.129 270.485 395.663 270.619C398.196 270.752 400.609 271.743 402.505 273.43C408.064 278.645 407.436 288.835 413.951 292.791C415.747 293.877 418.042 294.455 419.091 296.279C419.345 296.859 419.641 297.42 419.978 297.957C420.414 298.437 420.948 298.818 421.544 299.074C423.435 299.918 425.234 300.953 426.915 302.162C427.753 302.773 428.459 303.547 428.99 304.438C429.521 305.329 429.867 306.318 430.005 307.346C430.029 308.853 429.705 310.345 429.056 311.706C425.868 319.529 420.336 326.173 413.221 330.725C406.107 335.276 397.758 337.511 389.322 337.123C387.825 337.2 386.349 336.739 385.161 335.824C384.536 335.116 384.043 334.302 383.706 333.419C380.643 326.994 374.891 322.251 371.237 316.142C369.061 312.502 367.663 308.429 365.397 304.843C361.96 299.407 356.737 295.391 351.623 291.494C348.739 289.297 345.528 286.991 341.906 287.145C338.677 287.282 336.328 287.457 337.512 283.493C338.497 280.639 340.467 278.23 343.069 276.699H343.063Z" fill="black"/>
<path d="M327.283 716.386C329.479 718.437 332.5 719.336 335.431 719.972C342.125 721.278 348.902 722.116 355.713 722.48C357.917 722.643 360.131 722.814 362.335 722.986C368.801 723.476 375.278 723.976 381.773 723.999C389.785 724.026 397.783 723.334 405.672 721.932C405.988 721.963 406.306 721.919 406.602 721.804C406.898 721.689 407.163 721.506 407.375 721.27C407.587 721.034 407.741 720.751 407.825 720.445C407.908 720.139 407.918 719.817 407.854 719.506C407.714 711.424 402.317 705.146 400.503 697.269C399.752 694.034 398.366 699.522 398.106 699.824C396.497 701.655 395.28 702.495 392.839 702.629C386.168 702.998 378.697 698.936 373.401 695.325C372.266 694.481 371.061 693.735 369.8 693.095C368.874 692.68 367.894 692.4 366.889 692.263C363.457 691.947 360.007 692.645 356.968 694.273C352.989 696.249 349.484 699.094 345.546 701.127C342.34 702.776 338.878 703.872 335.308 704.371C331.699 704.868 327.387 705.106 325.539 708.234C325.536 708.237 325.534 708.241 325.532 708.246C325.531 708.25 325.53 708.255 325.531 708.259C323.993 710.847 325.095 714.343 327.283 716.386Z" fill="#090814"/>
<path opacity="0.1" d="M389.971 238.867C389.332 239.265 388.62 239.53 387.876 239.647C386.938 239.92 385.952 239.987 384.986 239.842C384.02 239.698 383.096 239.345 382.279 238.809L389.971 238.867Z" fill="black"/>
<path d="M325.812 203.561C329.237 200.814 333.446 199.224 337.831 199.02C342.128 198.636 346.756 198.917 350.428 196.702C354.607 194.136 356.989 188.577 361.816 187.869C363.898 187.71 365.982 188.136 367.835 189.098C375.017 192.267 381.097 197.499 385.304 204.13C386.259 206 387.565 207.67 389.149 209.048C390.128 209.612 391.075 210.227 391.989 210.892C392.959 211.873 393.67 213.08 394.056 214.406C396.589 221.62 396.408 229.51 393.548 236.601C391.849 240.787 389.251 244.539 387.473 248.743C385.695 252.947 378.93 260.523 377.836 258.3C376.742 256.078 375.252 253.949 374.808 251.483C373.944 246.636 375.818 242.098 372.565 238.405C370.552 236.122 366.633 234.275 364.78 236.676C364.048 237.604 363.931 238.877 363.281 239.855C362 241.76 358.985 241.801 357.162 240.393C355.428 238.851 354.338 236.71 354.111 234.4C352.384 224.033 348.122 217.117 336.897 220.082C332.716 221.193 327.889 221.695 324.394 218.482C319.786 214.25 321.691 207.229 325.812 203.561Z" fill="#090814"/>
<path d="M156.632 146.428C184.442 146.428 206.987 123.871 206.987 96.0458C206.987 68.2205 184.442 45.6636 156.632 45.6636C128.821 45.6636 106.276 68.2205 106.276 96.0458C106.276 123.871 128.821 146.428 156.632 146.428Z" fill="white"/>
<path d="M156.631 146.93C146.573 146.93 136.74 143.946 128.376 138.355C120.013 132.763 113.494 124.816 109.645 115.518C105.795 106.22 104.788 95.9885 106.751 86.1177C108.713 76.2469 113.557 67.18 120.669 60.0635C127.782 52.9471 136.844 48.1007 146.71 46.1373C156.575 44.1738 166.801 45.1815 176.094 49.0329C185.387 52.8843 193.33 59.4064 198.918 67.7745C204.507 76.1426 207.49 85.9807 207.49 96.0449C207.474 109.536 202.111 122.47 192.577 132.01C183.042 141.549 170.115 146.915 156.631 146.93ZM156.631 46.1659C146.772 46.1659 137.133 49.0912 128.935 54.572C120.737 60.0528 114.347 67.8428 110.574 76.957C106.801 86.0713 105.814 96.1003 107.737 105.776C109.661 115.451 114.409 124.339 121.381 131.315C128.353 138.29 137.235 143.041 146.906 144.966C156.576 146.89 166.6 145.902 175.709 142.127C184.818 138.352 192.604 131.959 198.082 123.756C203.56 115.554 206.484 105.91 206.484 96.0449C206.469 82.8208 201.212 70.1427 191.866 60.7918C182.52 51.4409 169.848 46.181 156.631 46.1659Z" fill="#090814"/>
<path d="M149.762 122.266C148.892 122.266 148.034 122.064 147.257 121.674C146.479 121.285 145.802 120.72 145.281 120.024L131.543 101.697C130.652 100.508 130.269 99.013 130.479 97.5416C130.689 96.0702 131.475 94.7426 132.663 93.8508C133.852 92.959 135.346 92.576 136.816 92.7862C138.287 92.9964 139.614 93.7825 140.505 94.9716L149.492 106.961L172.576 72.3177C172.98 71.6954 173.503 71.1596 174.115 70.7412C174.727 70.3228 175.417 70.0301 176.143 69.8802C176.869 69.7302 177.617 69.726 178.345 69.8677C179.073 70.0094 179.765 70.2943 180.382 70.7058C180.999 71.1172 181.528 71.6472 181.939 72.2648C182.349 72.8824 182.633 73.5754 182.774 74.3037C182.915 75.032 182.91 75.781 182.76 76.5073C182.609 77.2337 182.316 77.9229 181.897 78.535L154.422 119.77C153.925 120.516 153.256 121.132 152.472 121.565C151.688 121.999 150.812 122.239 149.916 122.265L149.762 122.266Z" fill="#6467F2"/>
<path d="M164.141 191.042C159.891 188.603 156.53 184.87 154.55 180.386C153.081 176.979 152.47 173.263 152.77 169.565C153.069 165.867 154.271 162.299 156.269 159.173C156.612 158.64 157.513 159.069 157.166 159.614C154.717 163.428 153.506 167.907 153.7 172.436C153.886 176.064 154.979 179.586 156.88 182.681C158.78 185.776 161.427 188.344 164.577 190.15C165.134 190.461 164.7 191.361 164.141 191.042Z" fill="#090814"/>
<path d="M149.894 161.071L157.106 155.005C157.175 154.957 157.254 154.925 157.337 154.912C157.42 154.899 157.505 154.905 157.586 154.931C157.666 154.956 157.74 154.999 157.801 155.057C157.862 155.115 157.909 155.186 157.939 155.265L160.78 165.249C160.972 165.925 159.942 166.306 159.748 165.624L156.906 155.639L157.739 155.899L150.529 161.967C149.991 162.423 149.356 161.523 149.894 161.071Z" fill="#090814"/>
<path d="M260.891 83.0359C260.456 80.0467 256.622 78.1302 252.328 78.7552C248.033 79.3802 244.904 82.3101 245.338 85.2993C245.773 88.2885 249.607 90.2051 253.901 89.5801C258.196 88.9551 261.325 86.0252 260.891 83.0359Z" fill="#D6D6E3"/>
<path d="M300.439 46.5799C298.665 44.1372 294.382 44.2259 290.872 46.7781C287.363 49.3303 285.956 53.3794 287.73 55.8221C289.505 58.2648 293.788 58.176 297.298 55.6239C300.807 53.0717 302.214 49.0226 300.439 46.5799Z" fill="#6467F2"/>
<path d="M313.111 10.693C313.091 7.95007 311.528 5.73818 309.62 5.75261C307.713 5.76703 306.184 8.0023 306.205 10.7452C306.225 13.4881 307.788 15.7 309.696 15.6856C311.603 15.6712 313.132 13.4359 313.111 10.693Z" fill="#6467F2"/>
<path d="M313.225 68.2229C313.204 65.48 311.641 63.2681 309.734 63.2826C307.827 63.297 306.297 65.5322 306.318 68.2752C306.339 71.0181 307.902 73.23 309.809 73.2156C311.716 73.2011 313.245 70.9659 313.225 68.2229Z" fill="#D6D6E3"/>
<path d="M278.842 91.028C278.821 88.2851 277.258 86.0732 275.351 86.0876C273.444 86.1021 271.914 88.3373 271.935 91.0803C271.956 93.8232 273.519 96.0351 275.426 96.0206C277.333 96.0062 278.863 93.771 278.842 91.028Z" fill="#6467F2"/>
<path d="M284.746 14.5772C284.312 11.588 280.478 9.67147 276.183 10.2965C271.888 10.9215 268.759 13.8514 269.194 16.8406C269.628 19.8298 273.462 21.7464 277.757 21.1214C282.051 20.4963 285.181 17.5664 284.746 14.5772Z" fill="#F2F2F2"/>
<path d="M275.352 46.1844C275.331 43.4415 273.768 41.2296 271.861 41.244C269.954 41.2584 268.424 43.4937 268.445 46.2366C268.466 48.9795 270.029 51.1914 271.936 51.177C273.843 51.1626 275.372 48.9273 275.352 46.1844Z" fill="#F2F2F2"/>
<path d="M0.779819 10.7474C0.345259 13.7366 3.47452 16.6665 7.76922 17.2916C12.0639 17.9166 15.8977 16 16.3323 13.0108C16.7669 10.0216 13.6376 7.09171 9.3429 6.46669C5.0482 5.84167 1.21438 7.75822 0.779819 10.7474Z" fill="#D6D6E3"/>
<path d="M43.1796 40.2216C41.4051 42.6643 42.8117 46.7134 46.3212 49.2656C49.8307 51.8178 54.1142 51.9065 55.8886 49.4638C57.6631 47.0211 56.2565 42.972 52.747 40.4198C49.2375 37.8677 44.954 37.7789 43.1796 40.2216Z" fill="#6467F2"/>
<path d="M61.6535 85.3018C61.6328 88.0447 63.1621 90.28 65.0693 90.2944C66.9765 90.3088 68.5394 88.0969 68.5601 85.354C68.5809 82.6111 67.0515 80.3758 65.1443 80.3614C63.2371 80.347 61.6742 82.5589 61.6535 85.3018Z" fill="#6467F2"/>
<path d="M61.7658 27.7719C61.7451 30.5148 63.2744 32.7501 65.1816 32.7645C67.0888 32.7789 68.6517 30.567 68.6724 27.8241C68.6932 25.0812 67.1639 22.8459 65.2566 22.8315C63.3494 22.8171 61.7865 25.0289 61.7658 27.7719Z" fill="#F2F2F2"/>
<path d="M27.3849 4.96676C27.3642 7.70969 28.8935 9.94495 30.8007 9.95937C32.708 9.9738 34.2709 7.76191 34.2916 5.01899C34.3123 2.27607 32.783 0.0407993 30.8758 0.0263779C28.9685 0.0119565 27.4056 2.22384 27.3849 4.96676Z" fill="#6467F2"/>
<path d="M24.6363 79.2052C24.2017 82.1945 27.331 85.1244 31.6257 85.7494C35.9204 86.3744 39.7542 84.4579 40.1887 81.4686C40.6233 78.4794 37.494 75.5495 33.1993 74.9245C28.9046 74.2995 25.0708 76.216 24.6363 79.2052Z" fill="#D6D6E3"/>
<path d="M23.8927 49.8104C23.872 52.5533 25.4013 54.7886 27.3086 54.803C29.2158 54.8175 30.7787 52.6056 30.7994 49.8626C30.8201 47.1197 29.2908 44.8845 27.3836 44.87C25.4764 44.8556 23.9135 47.0675 23.8927 49.8104Z" fill="#F2F2F2"/>
</g>
<defs>
<linearGradient id="paint0_linear_651_32743" x1="-209.164" y1="693.047" x2="-209.164" y2="683.7" gradientUnits="userSpaceOnUse">
<stop stop-color="#808080" stop-opacity="0.251"/>
<stop offset="0.535" stop-color="#808080" stop-opacity="0.122"/>
<stop offset="1" stop-color="#808080" stop-opacity="0.102"/>
</linearGradient>
<clipPath id="clip0_651_32743">
<rect width="430" height="724" fill="white"/>
</clipPath>
</defs>
</svg>
