<svg width="430" height="346" viewBox="0 0 430 346" fill="none" xmlns="http://www.w3.org/2000/svg">
<g clip-path="url(#clip0_651_32577)">
<path d="M22.4378 128.443C16.4869 128.443 10.7797 130.804 6.57185 135.007C2.36396 139.21 0 144.911 0 150.855C0 156.799 2.36396 162.5 6.57185 166.703C10.7797 170.906 16.4869 173.267 22.4378 173.267H189.653C195.604 173.267 201.311 170.906 205.519 166.703C209.727 162.5 212.091 156.799 212.091 150.855C212.091 144.911 209.727 139.21 205.519 135.007C201.311 130.804 195.604 128.443 189.653 128.443H22.4378Z" fill="#E5E5E5"/>
<path d="M22.4379 132.978C17.6913 132.978 13.1392 134.862 9.7829 138.214C6.42659 141.567 4.54102 146.114 4.54102 150.855C4.54102 155.596 6.42659 160.143 9.7829 163.495C13.1392 166.848 17.6913 168.731 22.4379 168.731H189.652C194.399 168.731 198.951 166.848 202.307 163.495C205.664 160.143 207.549 155.596 207.549 150.855C207.549 146.114 205.664 141.567 202.307 138.214C198.951 134.862 194.399 132.978 189.652 132.978H22.4379Z" fill="white"/>
<path d="M59.3731 161.544H26.1036C25.9967 161.547 25.8902 161.528 25.7906 161.489C25.6909 161.45 25.6001 161.392 25.5234 161.317C25.4468 161.242 25.3859 161.153 25.3443 161.055C25.3027 160.956 25.2812 160.851 25.2812 160.744C25.2812 160.637 25.3027 160.531 25.3443 160.432C25.3859 160.334 25.4468 160.245 25.5234 160.17C25.6001 160.096 25.6909 160.037 25.7906 159.998C25.8902 159.959 25.9967 159.94 26.1036 159.943H59.3731C59.582 159.949 59.7806 160.035 59.9265 160.185C60.0724 160.334 60.154 160.535 60.154 160.744C60.154 160.952 60.0724 161.153 59.9265 161.302C59.7806 161.452 59.582 161.539 59.3731 161.544Z" fill="#6467F2"/>
<path d="M101.578 161.811H68.3082C68.0956 161.811 67.8918 161.726 67.7415 161.576C67.5913 161.426 67.5068 161.223 67.5068 161.01C67.5068 160.798 67.5913 160.594 67.7415 160.444C67.8918 160.294 68.0956 160.21 68.3082 160.21H101.578C101.79 160.21 101.994 160.294 102.144 160.444C102.295 160.594 102.379 160.798 102.379 161.01C102.379 161.223 102.295 161.426 102.144 161.576C101.994 161.726 101.79 161.811 101.578 161.811Z" fill="#6467F2"/>
<path d="M143.783 162.078H110.513C110.304 162.073 110.106 161.986 109.96 161.836C109.814 161.687 109.732 161.486 109.732 161.278C109.732 161.069 109.814 160.868 109.96 160.719C110.106 160.569 110.304 160.483 110.513 160.477H143.783C143.995 160.477 144.199 160.562 144.349 160.712C144.5 160.862 144.584 161.065 144.584 161.278C144.584 161.49 144.5 161.694 144.349 161.844C144.199 161.994 143.995 162.078 143.783 162.078Z" fill="#6467F2"/>
<path d="M185.987 162.345H152.717C152.505 162.345 152.301 162.26 152.151 162.11C152 161.96 151.916 161.757 151.916 161.544C151.916 161.332 152 161.128 152.151 160.978C152.301 160.828 152.505 160.744 152.717 160.744H185.987C186.196 160.749 186.394 160.836 186.54 160.986C186.686 161.135 186.768 161.336 186.768 161.544C186.768 161.753 186.686 161.954 186.54 162.103C186.394 162.253 186.196 162.339 185.987 162.345Z" fill="#6467F2"/>
<path d="M42.6661 154.178C46.0812 154.178 48.8497 151.412 48.8497 148.001C48.8497 144.59 46.0812 141.824 42.6661 141.824C39.2509 141.824 36.4824 144.59 36.4824 148.001C36.4824 151.412 39.2509 154.178 42.6661 154.178Z" fill="#6467F2"/>
<path d="M85.1251 154.178C88.5402 154.178 91.3087 151.412 91.3087 148.001C91.3087 144.59 88.5402 141.824 85.1251 141.824C81.7099 141.824 78.9414 144.59 78.9414 148.001C78.9414 151.412 81.7099 154.178 85.1251 154.178Z" fill="#6467F2"/>
<path d="M127.585 154.178C131 154.178 133.769 151.412 133.769 148.001C133.769 144.59 131 141.824 127.585 141.824C124.17 141.824 121.401 144.59 121.401 148.001C121.401 151.412 124.17 154.178 127.585 154.178Z" fill="#6467F2"/>
<path d="M170.044 154.178C173.459 154.178 176.228 151.412 176.228 148.001C176.228 144.59 173.459 141.824 170.044 141.824C166.629 141.824 163.86 144.59 163.86 148.001C163.86 151.412 166.629 154.178 170.044 154.178Z" fill="#6467F2"/>
<path d="M192.747 323.155C192.117 323.155 191.492 323.044 190.9 322.828L150.79 308.267C149.678 307.864 148.729 307.107 148.088 306.114C147.447 305.12 147.15 303.944 147.242 302.766C147.334 301.588 147.809 300.472 148.596 299.589C149.383 298.706 150.438 298.106 151.6 297.879L262.375 276.217C263.271 276.042 264.198 276.096 265.067 276.374L296.019 286.28C297.136 286.638 298.107 287.348 298.785 288.305C299.463 289.261 299.812 290.411 299.779 291.583C299.746 292.754 299.332 293.883 298.601 294.8C297.87 295.717 296.861 296.371 295.725 296.665L194.107 322.982C193.663 323.097 193.206 323.155 192.747 323.155Z" fill="#090814"/>
<path d="M273.872 272.222L332.047 279.205L321.441 299.636L270.15 292.2C265.927 295.192 260.058 296.523 253.955 295.39C243.279 293.404 235.956 284.643 237.601 275.815C239.246 266.987 249.234 261.444 259.91 263.43C266.012 264.561 271.008 267.913 273.872 272.222Z" fill="#ED9DA0"/>
<path d="M354.65 108.261C352.415 100.01 347.934 92.5384 341.706 86.6767C335.477 80.8149 327.744 76.7923 319.364 75.0553C310.985 73.3183 302.288 73.9349 294.238 76.8368C286.189 79.7386 279.102 84.8121 273.765 91.4938C268.427 98.1756 265.048 106.204 264.003 114.688C262.958 123.172 264.287 131.78 267.843 139.555C271.399 147.33 277.043 153.968 284.148 158.733C291.252 163.498 299.54 166.203 308.091 166.547L332.166 221.255L366.292 172.696C366.292 172.696 353.5 163.158 344.703 150.885C349.759 145.155 353.315 138.262 355.05 130.824C356.786 123.386 356.648 115.633 354.65 108.261Z" fill="#ED9DA0"/>
<path d="M401.481 203.762C398.426 196.241 393.209 189.792 386.487 185.231C379.765 180.67 371.841 178.2 363.715 178.134C342.752 177.933 316.068 183.408 314.968 212.348C313.147 260.264 314.968 240.977 314.968 240.977C314.968 240.977 300.496 276.971 314.968 294.332C329.44 311.693 342.059 345.913 342.059 345.913H430C430 345.913 414.818 305.836 417.427 278.494C419.197 259.934 410.756 226.676 401.482 203.764L401.481 203.762Z" fill="white"/>
<path d="M426.639 196.685C424.23 201.023 417.273 200.777 413.84 197.192C410.406 193.606 409.833 188.14 410.372 183.208C410.911 178.277 412.365 173.427 412.265 168.467C412.074 159.002 424.433 174.47 418.085 167.441C411.737 160.412 404.478 153.955 400.139 145.539L399.615 145.002C401.469 138.888 396.974 132.643 391.915 128.738C386.856 124.832 380.79 121.849 377.337 116.472C374.398 111.899 373.804 106.275 372.518 100.993C367.534 80.5343 350.307 63.564 329.759 58.8703C309.21 54.1765 286.31 61.983 272.921 78.2443L273.243 77.5702C268.891 78.5142 264.884 80.6379 261.661 83.7081C258.438 86.7782 256.125 90.6761 254.975 94.9736C254.347 97.4632 254.138 100.14 254.975 102.569C255.812 104.997 257.848 107.118 260.388 107.52C263.111 107.949 265.835 106.351 267.513 104.165C269.191 101.979 270.028 99.281 270.833 96.6486C272.42 102.194 275.454 107.219 279.625 111.208C283.796 115.197 288.953 118.007 294.569 119.35C294.372 120.865 294.589 122.405 295.196 123.807C295.803 125.21 296.778 126.422 298.017 127.317C299.257 128.211 300.716 128.755 302.239 128.89C303.763 129.025 305.294 128.747 306.672 128.084L307.317 127.47L316.827 127.9C314.272 131.378 312.451 135.339 311.476 139.542C310.5 143.745 310.39 148.103 311.153 152.349C311.915 156.596 313.533 160.644 315.91 164.246C318.287 167.849 321.372 170.931 324.978 173.306C330.72 177.088 337.503 178.906 344.167 180.605C350.831 182.304 352.799 194.222 361.564 204.573C361.099 216.335 369.838 227.811 381.312 230.501L378.163 241.06C384.544 238.793 391.53 240.858 398.268 241.543C405.006 242.229 413.175 240.596 415.764 234.345C418.517 227.699 413.261 220.652 408.371 215.371C418.326 216.363 427.869 206.601 426.642 196.685H426.639Z" fill="#090814"/>
<path d="M253.557 304.897L310.208 319.844L296.876 338.614L247.107 324.167C242.511 326.547 236.513 327.056 230.626 325.091C220.327 321.651 214.287 311.96 217.137 303.446C219.987 294.931 230.647 290.819 240.949 294.259C246.835 296.225 251.318 300.235 253.559 304.898L253.557 304.897Z" fill="#ED9DA0"/>
<path d="M366.292 240.978C366.292 240.978 363.82 349.531 328.379 345.911C292.938 342.292 281.209 337.734 281.209 337.734C281.209 337.734 274.04 310.394 286.421 309.741C298.802 309.088 314.964 306.045 314.964 306.045V227.314" fill="#E6E6E6"/>
<path d="M263.382 47.3441C261.072 48.3101 258.654 47.2518 257.644 44.8303C256.616 42.3723 257.576 39.8767 259.926 38.8968C262.275 37.9168 264.646 38.9762 265.69 41.4728C266.719 43.9345 265.768 46.348 263.382 47.3441ZM258.952 34.0581L257.113 34.825C256.653 35.0144 256.139 35.0247 255.673 34.8538C255.206 34.6828 254.821 34.3431 254.593 33.9019L254.502 33.7243C252.523 30.1597 252.299 25.8276 253.832 20.8547C255.254 16.3939 255.845 13.2565 254.657 10.4142C253.283 7.12816 250.35 6.09881 246.609 7.5897C245.158 8.19508 244.696 8.18542 243.555 9.31673C243.306 9.56576 243.01 9.76229 242.684 9.8946C242.358 10.0269 242.009 10.0923 241.657 10.0869C241.317 10.0828 240.981 10.0104 240.669 9.87397C240.358 9.73751 240.077 9.53978 239.844 9.29258C239.394 8.81614 239.142 8.18703 239.139 7.53228C239.135 6.87753 239.381 6.24593 239.826 5.765C241.745 3.75846 244.059 2.17103 246.624 1.10288C254.661 -2.2492 258.707 2.70004 260.558 7.1287C262.369 11.4608 261.351 15.4805 259.714 20.6857C258.342 25.0113 258.424 28.2163 259.982 31.4031C260.095 31.6441 260.157 31.9053 260.166 32.171C260.175 32.4367 260.13 32.7014 260.034 32.9494C259.938 33.1973 259.793 33.4233 259.607 33.6137C259.421 33.8041 259.199 33.9551 258.953 34.0575L258.952 34.0581Z" fill="white"/>
</g>
<defs>
<clipPath id="clip0_651_32577">
<rect width="430" height="346" fill="white"/>
</clipPath>
</defs>
</svg>
